<mxfile host="app.diagrams.net" modified="2022-11-14T07:53:17.297Z" agent="5.0 (Windows NT 10.0; Win64; x64) AppleWebKit/537.36 (KHTML, like Gecko) Chrome/107.0.0.0 Safari/537.36 Edg/107.0.1418.42" etag="cx9BVQDX6GSfY06Er_Cy" version="20.5.3" type="github">
  <diagram id="Rz6UT0VjQpFJXZLJUA3M" name="第 1 页">
    <mxGraphModel dx="1375" dy="794" grid="1" gridSize="10" guides="1" tooltips="1" connect="1" arrows="1" fold="1" page="1" pageScale="1" pageWidth="827" pageHeight="1169" math="0" shadow="0">
      <root>
        <mxCell id="0" />
        <mxCell id="1" parent="0" />
        <mxCell id="Rtbrfeo4G4_na3K6ehWW-3" value="波动" style="edgeStyle=orthogonalEdgeStyle;rounded=0;orthogonalLoop=1;jettySize=auto;html=1;entryX=1;entryY=0.5;entryDx=0;entryDy=0;" edge="1" parent="1" source="Rtbrfeo4G4_na3K6ehWW-1" target="Rtbrfeo4G4_na3K6ehWW-23">
          <mxGeometry x="-0.5484" relative="1" as="geometry">
            <mxPoint as="offset" />
          </mxGeometry>
        </mxCell>
        <mxCell id="Rtbrfeo4G4_na3K6ehWW-1" value="核心指标 α" style="rounded=0;whiteSpace=wrap;html=1;" vertex="1" parent="1">
          <mxGeometry x="330" y="130" width="120" height="60" as="geometry" />
        </mxCell>
        <mxCell id="Rtbrfeo4G4_na3K6ehWW-6" value="是，提取变量" style="edgeStyle=orthogonalEdgeStyle;rounded=0;orthogonalLoop=1;jettySize=auto;html=1;" edge="1" parent="1" source="Rtbrfeo4G4_na3K6ehWW-2" target="Rtbrfeo4G4_na3K6ehWW-5">
          <mxGeometry relative="1" as="geometry" />
        </mxCell>
        <mxCell id="Rtbrfeo4G4_na3K6ehWW-9" value="否，层级+1" style="edgeStyle=orthogonalEdgeStyle;rounded=0;orthogonalLoop=1;jettySize=auto;html=1;entryX=1;entryY=0.5;entryDx=0;entryDy=0;" edge="1" parent="1" source="Rtbrfeo4G4_na3K6ehWW-2" target="Rtbrfeo4G4_na3K6ehWW-7">
          <mxGeometry relative="1" as="geometry">
            <Array as="points">
              <mxPoint x="230" y="440" />
              <mxPoint x="230" y="320" />
            </Array>
          </mxGeometry>
        </mxCell>
        <mxCell id="Rtbrfeo4G4_na3K6ehWW-2" value="相关性判定" style="strokeWidth=2;html=1;shape=mxgraph.flowchart.decision;whiteSpace=wrap;fontFamily=Helvetica;fontSize=12;fontColor=default;align=center;strokeColor=default;fillColor=default;" vertex="1" parent="1">
          <mxGeometry x="100" y="390" width="100" height="100" as="geometry" />
        </mxCell>
        <mxCell id="Rtbrfeo4G4_na3K6ehWW-14" style="edgeStyle=orthogonalEdgeStyle;rounded=0;orthogonalLoop=1;jettySize=auto;html=1;entryX=0;entryY=0.5;entryDx=0;entryDy=0;" edge="1" parent="1" source="Rtbrfeo4G4_na3K6ehWW-5" target="Rtbrfeo4G4_na3K6ehWW-13">
          <mxGeometry relative="1" as="geometry" />
        </mxCell>
        <mxCell id="Rtbrfeo4G4_na3K6ehWW-5" value="核心变量 β" style="rounded=0;whiteSpace=wrap;html=1;" vertex="1" parent="1">
          <mxGeometry x="90" y="590" width="120" height="60" as="geometry" />
        </mxCell>
        <mxCell id="Rtbrfeo4G4_na3K6ehWW-8" value="" style="edgeStyle=orthogonalEdgeStyle;rounded=0;orthogonalLoop=1;jettySize=auto;html=1;" edge="1" parent="1" source="Rtbrfeo4G4_na3K6ehWW-7" target="Rtbrfeo4G4_na3K6ehWW-2">
          <mxGeometry relative="1" as="geometry" />
        </mxCell>
        <mxCell id="Rtbrfeo4G4_na3K6ehWW-7" value="归因层级" style="whiteSpace=wrap;html=1;" vertex="1" parent="1">
          <mxGeometry x="90" y="290" width="120" height="60" as="geometry" />
        </mxCell>
        <mxCell id="Rtbrfeo4G4_na3K6ehWW-15" value="观察" style="edgeStyle=orthogonalEdgeStyle;rounded=0;orthogonalLoop=1;jettySize=auto;html=1;entryX=0.5;entryY=1;entryDx=0;entryDy=0;" edge="1" parent="1" source="Rtbrfeo4G4_na3K6ehWW-13" target="Rtbrfeo4G4_na3K6ehWW-1">
          <mxGeometry relative="1" as="geometry" />
        </mxCell>
        <mxCell id="Rtbrfeo4G4_na3K6ehWW-13" value="调整&amp;amp;记录" style="rounded=0;whiteSpace=wrap;html=1;" vertex="1" parent="1">
          <mxGeometry x="330" y="590" width="120" height="60" as="geometry" />
        </mxCell>
        <mxCell id="Rtbrfeo4G4_na3K6ehWW-25" style="edgeStyle=orthogonalEdgeStyle;rounded=0;orthogonalLoop=1;jettySize=auto;html=1;exitX=0.75;exitY=0;exitDx=0;exitDy=0;entryX=0.5;entryY=1;entryDx=0;entryDy=0;" edge="1" parent="1" source="Rtbrfeo4G4_na3K6ehWW-16" target="Rtbrfeo4G4_na3K6ehWW-22">
          <mxGeometry relative="1" as="geometry" />
        </mxCell>
        <mxCell id="Rtbrfeo4G4_na3K6ehWW-35" value="验证" style="edgeStyle=orthogonalEdgeStyle;rounded=0;orthogonalLoop=1;jettySize=auto;html=1;exitX=0.5;exitY=1;exitDx=0;exitDy=0;entryX=0.5;entryY=0;entryDx=0;entryDy=0;" edge="1" parent="1" source="Rtbrfeo4G4_na3K6ehWW-16" target="Rtbrfeo4G4_na3K6ehWW-29">
          <mxGeometry relative="1" as="geometry" />
        </mxCell>
        <mxCell id="Rtbrfeo4G4_na3K6ehWW-16" value="次核心指标 1" style="rounded=0;whiteSpace=wrap;html=1;" vertex="1" parent="1">
          <mxGeometry x="600" y="130" width="120" height="60" as="geometry" />
        </mxCell>
        <mxCell id="Rtbrfeo4G4_na3K6ehWW-27" style="edgeStyle=orthogonalEdgeStyle;rounded=0;orthogonalLoop=1;jettySize=auto;html=1;exitX=0.5;exitY=0;exitDx=0;exitDy=0;entryX=0.5;entryY=1;entryDx=0;entryDy=0;" edge="1" parent="1" source="Rtbrfeo4G4_na3K6ehWW-17" target="Rtbrfeo4G4_na3K6ehWW-22">
          <mxGeometry relative="1" as="geometry">
            <mxPoint x="830" y="110" as="targetPoint" />
          </mxGeometry>
        </mxCell>
        <mxCell id="Rtbrfeo4G4_na3K6ehWW-17" value="次核心指标 2" style="rounded=0;whiteSpace=wrap;html=1;" vertex="1" parent="1">
          <mxGeometry x="770" y="130" width="120" height="60" as="geometry" />
        </mxCell>
        <mxCell id="Rtbrfeo4G4_na3K6ehWW-28" style="edgeStyle=orthogonalEdgeStyle;rounded=0;orthogonalLoop=1;jettySize=auto;html=1;exitX=0.5;exitY=0;exitDx=0;exitDy=0;entryX=0.5;entryY=1;entryDx=0;entryDy=0;" edge="1" parent="1" source="Rtbrfeo4G4_na3K6ehWW-18" target="Rtbrfeo4G4_na3K6ehWW-22">
          <mxGeometry relative="1" as="geometry" />
        </mxCell>
        <mxCell id="Rtbrfeo4G4_na3K6ehWW-18" value="次核心指标 3" style="rounded=0;whiteSpace=wrap;html=1;" vertex="1" parent="1">
          <mxGeometry x="940" y="130" width="120" height="60" as="geometry" />
        </mxCell>
        <mxCell id="Rtbrfeo4G4_na3K6ehWW-32" style="edgeStyle=orthogonalEdgeStyle;rounded=0;orthogonalLoop=1;jettySize=auto;html=1;exitX=0.5;exitY=0;exitDx=0;exitDy=0;entryX=0;entryY=0.5;entryDx=0;entryDy=0;" edge="1" parent="1" source="Rtbrfeo4G4_na3K6ehWW-19" target="Rtbrfeo4G4_na3K6ehWW-31">
          <mxGeometry relative="1" as="geometry" />
        </mxCell>
        <mxCell id="Rtbrfeo4G4_na3K6ehWW-19" value="底层变量 1" style="rounded=0;whiteSpace=wrap;html=1;" vertex="1" parent="1">
          <mxGeometry x="600" y="590" width="120" height="60" as="geometry" />
        </mxCell>
        <mxCell id="Rtbrfeo4G4_na3K6ehWW-33" style="edgeStyle=orthogonalEdgeStyle;rounded=0;orthogonalLoop=1;jettySize=auto;html=1;exitX=0.5;exitY=0;exitDx=0;exitDy=0;entryX=1;entryY=0.5;entryDx=0;entryDy=0;" edge="1" parent="1" source="Rtbrfeo4G4_na3K6ehWW-20" target="Rtbrfeo4G4_na3K6ehWW-31">
          <mxGeometry relative="1" as="geometry" />
        </mxCell>
        <mxCell id="Rtbrfeo4G4_na3K6ehWW-20" value="底层变量 2" style="rounded=0;whiteSpace=wrap;html=1;" vertex="1" parent="1">
          <mxGeometry x="770" y="590" width="120" height="60" as="geometry" />
        </mxCell>
        <mxCell id="Rtbrfeo4G4_na3K6ehWW-21" value="底层变量 3" style="rounded=0;whiteSpace=wrap;html=1;" vertex="1" parent="1">
          <mxGeometry x="940" y="590" width="120" height="60" as="geometry" />
        </mxCell>
        <mxCell id="Rtbrfeo4G4_na3K6ehWW-22" value="核心指标" style="rounded=0;whiteSpace=wrap;html=1;" vertex="1" parent="1">
          <mxGeometry x="770" y="20" width="120" height="60" as="geometry" />
        </mxCell>
        <mxCell id="Rtbrfeo4G4_na3K6ehWW-24" value="" style="edgeStyle=orthogonalEdgeStyle;rounded=0;orthogonalLoop=1;jettySize=auto;html=1;" edge="1" parent="1" source="Rtbrfeo4G4_na3K6ehWW-23" target="Rtbrfeo4G4_na3K6ehWW-7">
          <mxGeometry relative="1" as="geometry" />
        </mxCell>
        <mxCell id="Rtbrfeo4G4_na3K6ehWW-23" value="次指标分解" style="shape=process;whiteSpace=wrap;html=1;backgroundOutline=1;" vertex="1" parent="1">
          <mxGeometry x="90" y="130" width="120" height="60" as="geometry" />
        </mxCell>
        <mxCell id="Rtbrfeo4G4_na3K6ehWW-29" value="数据模型" style="rounded=0;whiteSpace=wrap;html=1;" vertex="1" parent="1">
          <mxGeometry x="680" y="300" width="120" height="60" as="geometry" />
        </mxCell>
        <mxCell id="Rtbrfeo4G4_na3K6ehWW-34" value="相关" style="edgeStyle=orthogonalEdgeStyle;rounded=0;orthogonalLoop=1;jettySize=auto;html=1;exitX=0.5;exitY=0;exitDx=0;exitDy=0;entryX=0.5;entryY=1;entryDx=0;entryDy=0;" edge="1" parent="1" source="Rtbrfeo4G4_na3K6ehWW-31" target="Rtbrfeo4G4_na3K6ehWW-29">
          <mxGeometry relative="1" as="geometry" />
        </mxCell>
        <mxCell id="Rtbrfeo4G4_na3K6ehWW-31" value="相关性判定" style="rhombus;whiteSpace=wrap;html=1;" vertex="1" parent="1">
          <mxGeometry x="700" y="450" width="80" height="80" as="geometry" />
        </mxCell>
      </root>
    </mxGraphModel>
  </diagram>
</mxfile>
